<svg width="129" height="27" viewBox="0 0 129 27" fill="none" xmlns="http://www.w3.org/2000/svg">
<path d="M4.9834 2.99219V13H3.71875V4.57129L1.16895 5.50098V4.35938L4.78516 2.99219H4.9834ZM14.9502 7.23047V8.74805C14.9502 9.5638 14.8773 10.252 14.7314 10.8125C14.5856 11.373 14.376 11.8242 14.1025 12.166C13.8291 12.5078 13.4987 12.7562 13.1113 12.9111C12.7285 13.0615 12.2956 13.1367 11.8125 13.1367C11.4297 13.1367 11.0765 13.0889 10.7529 12.9932C10.4294 12.8975 10.1377 12.7448 9.87793 12.5352C9.62272 12.321 9.40397 12.043 9.22168 11.7012C9.03939 11.3594 8.90039 10.9447 8.80469 10.457C8.70898 9.9694 8.66113 9.39974 8.66113 8.74805V7.23047C8.66113 6.41471 8.73405 5.73112 8.87988 5.17969C9.03027 4.62826 9.24219 4.1862 9.51562 3.85352C9.78906 3.51628 10.1172 3.27474 10.5 3.12891C10.8874 2.98307 11.3203 2.91016 11.7988 2.91016C12.1862 2.91016 12.5417 2.95801 12.8652 3.05371C13.1934 3.14486 13.485 3.29297 13.7402 3.49805C13.9954 3.69857 14.2119 3.96745 14.3896 4.30469C14.5719 4.63737 14.7109 5.04525 14.8066 5.52832C14.9023 6.01139 14.9502 6.57878 14.9502 7.23047ZM13.6787 8.95312V7.01855C13.6787 6.57194 13.6514 6.18001 13.5967 5.84277C13.5465 5.50098 13.4714 5.20931 13.3711 4.96777C13.2708 4.72624 13.1432 4.53027 12.9883 4.37988C12.8379 4.22949 12.6624 4.12012 12.4619 4.05176C12.266 3.97884 12.0449 3.94238 11.7988 3.94238C11.498 3.94238 11.2314 3.99935 10.999 4.11328C10.7666 4.22266 10.5706 4.39811 10.4111 4.63965C10.2562 4.88118 10.1377 5.19792 10.0557 5.58984C9.97363 5.98177 9.93262 6.45801 9.93262 7.01855V8.95312C9.93262 9.39974 9.95768 9.79395 10.0078 10.1357C10.0625 10.4775 10.1423 10.7738 10.2471 11.0244C10.3519 11.2705 10.4795 11.4733 10.6299 11.6328C10.7803 11.7923 10.9535 11.9108 11.1494 11.9883C11.3499 12.0612 11.571 12.0977 11.8125 12.0977C12.1224 12.0977 12.3936 12.0384 12.626 11.9199C12.8584 11.8014 13.0521 11.6169 13.207 11.3662C13.3665 11.111 13.485 10.7852 13.5625 10.3887C13.64 9.98763 13.6787 9.50911 13.6787 8.95312Z" fill="white"/>
<path d="M8.0752 19.2305V20.748C8.0752 21.5638 8.00228 22.252 7.85645 22.8125C7.71061 23.373 7.50098 23.8242 7.22754 24.166C6.9541 24.5078 6.6237 24.7562 6.23633 24.9111C5.85352 25.0615 5.42057 25.1367 4.9375 25.1367C4.55469 25.1367 4.2015 25.0889 3.87793 24.9932C3.55436 24.8975 3.2627 24.7448 3.00293 24.5352C2.74772 24.321 2.52897 24.043 2.34668 23.7012C2.16439 23.3594 2.02539 22.9447 1.92969 22.457C1.83398 21.9694 1.78613 21.3997 1.78613 20.748V19.2305C1.78613 18.4147 1.85905 17.7311 2.00488 17.1797C2.15527 16.6283 2.36719 16.1862 2.64062 15.8535C2.91406 15.5163 3.24219 15.2747 3.625 15.1289C4.01237 14.9831 4.44531 14.9102 4.92383 14.9102C5.3112 14.9102 5.66667 14.958 5.99023 15.0537C6.31836 15.1449 6.61003 15.293 6.86523 15.498C7.12044 15.6986 7.33691 15.9674 7.51465 16.3047C7.69694 16.6374 7.83594 17.0452 7.93164 17.5283C8.02734 18.0114 8.0752 18.5788 8.0752 19.2305ZM6.80371 20.9531V19.0186C6.80371 18.5719 6.77637 18.18 6.72168 17.8428C6.67155 17.501 6.59635 17.2093 6.49609 16.9678C6.39583 16.7262 6.26823 16.5303 6.11328 16.3799C5.96289 16.2295 5.78743 16.1201 5.58691 16.0518C5.39095 15.9788 5.16992 15.9424 4.92383 15.9424C4.62305 15.9424 4.35645 15.9993 4.12402 16.1133C3.8916 16.2227 3.69564 16.3981 3.53613 16.6396C3.38118 16.8812 3.2627 17.1979 3.18066 17.5898C3.09863 17.9818 3.05762 18.458 3.05762 19.0186V20.9531C3.05762 21.3997 3.08268 21.7939 3.13281 22.1357C3.1875 22.4775 3.26725 22.7738 3.37207 23.0244C3.47689 23.2705 3.60449 23.4733 3.75488 23.6328C3.90527 23.7923 4.07845 23.9108 4.27441 23.9883C4.47493 24.0612 4.69596 24.0977 4.9375 24.0977C5.2474 24.0977 5.51855 24.0384 5.75098 23.9199C5.9834 23.8014 6.17708 23.6169 6.33203 23.3662C6.49154 23.111 6.61003 22.7852 6.6875 22.3887C6.76497 21.9876 6.80371 21.5091 6.80371 20.9531ZM13.8584 14.9922V25H12.5938V16.5713L10.0439 17.501V16.3594L13.6602 14.9922H13.8584Z" fill="white"/>
<path d="M25.7969 8.625H27.2578L30.9844 17.8984L34.7031 8.625H36.1719L31.5469 20H30.4062L25.7969 8.625ZM25.3203 8.625H26.6094L26.8203 15.5625V20H25.3203V8.625ZM35.3516 8.625H36.6406V20H35.1406V15.5625L35.3516 8.625ZM38.6875 15.8672V15.6875C38.6875 15.0781 38.776 14.513 38.9531 13.9922C39.1302 13.4661 39.3854 13.0104 39.7188 12.625C40.0521 12.2344 40.4557 11.9323 40.9297 11.7188C41.4036 11.5 41.9349 11.3906 42.5234 11.3906C43.1172 11.3906 43.651 11.5 44.125 11.7188C44.6042 11.9323 45.0104 12.2344 45.3438 12.625C45.6823 13.0104 45.9401 13.4661 46.1172 13.9922C46.2943 14.513 46.3828 15.0781 46.3828 15.6875V15.8672C46.3828 16.4766 46.2943 17.0417 46.1172 17.5625C45.9401 18.0833 45.6823 18.5391 45.3438 18.9297C45.0104 19.3151 44.6068 19.6172 44.1328 19.8359C43.6641 20.0495 43.1328 20.1562 42.5391 20.1562C41.9453 20.1562 41.4115 20.0495 40.9375 19.8359C40.4635 19.6172 40.0573 19.3151 39.7188 18.9297C39.3854 18.5391 39.1302 18.0833 38.9531 17.5625C38.776 17.0417 38.6875 16.4766 38.6875 15.8672ZM40.1328 15.6875V15.8672C40.1328 16.2891 40.1823 16.6875 40.2812 17.0625C40.3802 17.4323 40.5286 17.7604 40.7266 18.0469C40.9297 18.3333 41.1823 18.5599 41.4844 18.7266C41.7865 18.888 42.138 18.9688 42.5391 18.9688C42.9349 18.9688 43.2812 18.888 43.5781 18.7266C43.8802 18.5599 44.1302 18.3333 44.3281 18.0469C44.526 17.7604 44.6745 17.4323 44.7734 17.0625C44.8776 16.6875 44.9297 16.2891 44.9297 15.8672V15.6875C44.9297 15.2708 44.8776 14.8776 44.7734 14.5078C44.6745 14.1328 44.5234 13.8021 44.3203 13.5156C44.1224 13.224 43.8724 12.9948 43.5703 12.8281C43.2734 12.6615 42.9245 12.5781 42.5234 12.5781C42.1276 12.5781 41.7786 12.6615 41.4766 12.8281C41.1797 12.9948 40.9297 13.224 40.7266 13.5156C40.5286 13.8021 40.3802 14.1328 40.2812 14.5078C40.1823 14.8776 40.1328 15.2708 40.1328 15.6875ZM53.5234 18.3594V8H54.9766V20H53.6484L53.5234 18.3594ZM47.8359 15.8672V15.7031C47.8359 15.0573 47.9141 14.4714 48.0703 13.9453C48.2318 13.4141 48.4583 12.9583 48.75 12.5781C49.0469 12.1979 49.3984 11.9062 49.8047 11.7031C50.2161 11.4948 50.6745 11.3906 51.1797 11.3906C51.7109 11.3906 52.1745 11.4844 52.5703 11.6719C52.9714 11.8542 53.3099 12.1224 53.5859 12.4766C53.8672 12.8255 54.0885 13.2474 54.25 13.7422C54.4115 14.237 54.5234 14.7969 54.5859 15.4219V16.1406C54.5286 16.7604 54.4167 17.3177 54.25 17.8125C54.0885 18.3073 53.8672 18.7292 53.5859 19.0781C53.3099 19.4271 52.9714 19.6953 52.5703 19.8828C52.1693 20.0651 51.7005 20.1562 51.1641 20.1562C50.6693 20.1562 50.2161 20.0495 49.8047 19.8359C49.3984 19.6224 49.0469 19.3229 48.75 18.9375C48.4583 18.5521 48.2318 18.099 48.0703 17.5781C47.9141 17.0521 47.8359 16.4818 47.8359 15.8672ZM49.2891 15.7031V15.8672C49.2891 16.2891 49.3307 16.6849 49.4141 17.0547C49.5026 17.4245 49.638 17.75 49.8203 18.0312C50.0026 18.3125 50.2344 18.5339 50.5156 18.6953C50.7969 18.8516 51.1328 18.9297 51.5234 18.9297C52.0026 18.9297 52.3958 18.8281 52.7031 18.625C53.0156 18.4219 53.2656 18.1536 53.4531 17.8203C53.6406 17.487 53.7865 17.125 53.8906 16.7344V14.8516C53.8281 14.5651 53.737 14.2891 53.6172 14.0234C53.5026 13.7526 53.3516 13.513 53.1641 13.3047C52.9818 13.0911 52.7552 12.9219 52.4844 12.7969C52.2188 12.6719 51.9036 12.6094 51.5391 12.6094C51.1432 12.6094 50.8021 12.6927 50.5156 12.8594C50.2344 13.0208 50.0026 13.2448 49.8203 13.5312C49.638 13.8125 49.5026 14.1406 49.4141 14.5156C49.3307 14.8854 49.2891 15.2812 49.2891 15.7031ZM62.3984 18.0469V11.5469H63.8516V20H62.4688L62.3984 18.0469ZM62.6719 16.2656L63.2734 16.25C63.2734 16.8125 63.2135 17.3333 63.0938 17.8125C62.9792 18.2865 62.7917 18.6979 62.5312 19.0469C62.2708 19.3958 61.9297 19.6693 61.5078 19.8672C61.0859 20.0599 60.5729 20.1562 59.9688 20.1562C59.5573 20.1562 59.1797 20.0964 58.8359 19.9766C58.4974 19.8568 58.2057 19.6719 57.9609 19.4219C57.7161 19.1719 57.526 18.8464 57.3906 18.4453C57.2604 18.0443 57.1953 17.5625 57.1953 17V11.5469H58.6406V17.0156C58.6406 17.3958 58.6823 17.7109 58.7656 17.9609C58.8542 18.2057 58.9714 18.401 59.1172 18.5469C59.2682 18.6875 59.4349 18.7865 59.6172 18.8438C59.8047 18.901 59.9974 18.9297 60.1953 18.9297C60.8099 18.9297 61.2969 18.8125 61.6562 18.5781C62.0156 18.3385 62.2734 18.0182 62.4297 17.6172C62.5911 17.2109 62.6719 16.7604 62.6719 16.2656ZM67.625 8V20H66.1719V8H67.625ZM74.9297 18.5547V14.2031C74.9297 13.8698 74.862 13.5807 74.7266 13.3359C74.5964 13.0859 74.3984 12.8932 74.1328 12.7578C73.8672 12.6224 73.5391 12.5547 73.1484 12.5547C72.7839 12.5547 72.4635 12.6172 72.1875 12.7422C71.9167 12.8672 71.7031 13.0312 71.5469 13.2344C71.3958 13.4375 71.3203 13.6562 71.3203 13.8906H69.875C69.875 13.5885 69.9531 13.2891 70.1094 12.9922C70.2656 12.6953 70.4896 12.4271 70.7812 12.1875C71.0781 11.9427 71.4323 11.75 71.8438 11.6094C72.2604 11.4635 72.724 11.3906 73.2344 11.3906C73.849 11.3906 74.3906 11.4948 74.8594 11.7031C75.3333 11.9115 75.7031 12.2266 75.9688 12.6484C76.2396 13.0651 76.375 13.5885 76.375 14.2188V18.1562C76.375 18.4375 76.3984 18.737 76.4453 19.0547C76.4974 19.3724 76.5729 19.6458 76.6719 19.875V20H75.1641C75.0911 19.8333 75.0339 19.612 74.9922 19.3359C74.9505 19.0547 74.9297 18.7943 74.9297 18.5547ZM75.1797 14.875L75.1953 15.8906H73.7344C73.3229 15.8906 72.9557 15.9245 72.6328 15.9922C72.3099 16.0547 72.0391 16.151 71.8203 16.2812C71.6016 16.4115 71.4349 16.5755 71.3203 16.7734C71.2057 16.9661 71.1484 17.1927 71.1484 17.4531C71.1484 17.7188 71.2083 17.9609 71.3281 18.1797C71.4479 18.3984 71.6276 18.5729 71.8672 18.7031C72.112 18.8281 72.4115 18.8906 72.7656 18.8906C73.2083 18.8906 73.599 18.7969 73.9375 18.6094C74.276 18.4219 74.5443 18.1927 74.7422 17.9219C74.9453 17.651 75.0547 17.388 75.0703 17.1328L75.6875 17.8281C75.651 18.0469 75.5521 18.2891 75.3906 18.5547C75.2292 18.8203 75.013 19.0755 74.7422 19.3203C74.4766 19.5599 74.1589 19.7604 73.7891 19.9219C73.4245 20.0781 73.013 20.1562 72.5547 20.1562C71.9818 20.1562 71.4792 20.0443 71.0469 19.8203C70.6198 19.5964 70.2865 19.2969 70.0469 18.9219C69.8125 18.5417 69.6953 18.1172 69.6953 17.6484C69.6953 17.1953 69.7839 16.7969 69.9609 16.4531C70.138 16.1042 70.3932 15.8151 70.7266 15.5859C71.0599 15.3516 71.4609 15.1745 71.9297 15.0547C72.3984 14.9349 72.9219 14.875 73.5 14.875H75.1797ZM80.0938 12.875V20H78.6484V11.5469H80.0547L80.0938 12.875ZM82.7344 11.5L82.7266 12.8438C82.6068 12.8177 82.4922 12.8021 82.3828 12.7969C82.2786 12.7865 82.1589 12.7812 82.0234 12.7812C81.6901 12.7812 81.3958 12.8333 81.1406 12.9375C80.8854 13.0417 80.6693 13.1875 80.4922 13.375C80.3151 13.5625 80.1745 13.7865 80.0703 14.0469C79.9714 14.3021 79.9062 14.5833 79.875 14.8906L79.4688 15.125C79.4688 14.6146 79.5182 14.1354 79.6172 13.6875C79.7214 13.2396 79.8802 12.8438 80.0938 12.5C80.3073 12.151 80.5781 11.8802 80.9062 11.6875C81.2396 11.4896 81.6354 11.3906 82.0938 11.3906C82.1979 11.3906 82.3177 11.4036 82.4531 11.4297C82.5885 11.4505 82.6823 11.474 82.7344 11.5ZM95.125 16.3828H96.625C96.5469 17.1016 96.3411 17.7448 96.0078 18.3125C95.6745 18.8802 95.2031 19.3307 94.5938 19.6641C93.9844 19.9922 93.224 20.1562 92.3125 20.1562C91.6458 20.1562 91.0391 20.0312 90.4922 19.7812C89.9505 19.5312 89.4844 19.1771 89.0938 18.7188C88.7031 18.2552 88.401 17.7005 88.1875 17.0547C87.9792 16.4036 87.875 15.6797 87.875 14.8828V13.75C87.875 12.9531 87.9792 12.2318 88.1875 11.5859C88.401 10.9349 88.7057 10.3776 89.1016 9.91406C89.5026 9.45052 89.9844 9.09375 90.5469 8.84375C91.1094 8.59375 91.7422 8.46875 92.4453 8.46875C93.3047 8.46875 94.0312 8.63021 94.625 8.95312C95.2188 9.27604 95.6797 9.72396 96.0078 10.2969C96.3411 10.8646 96.5469 11.5234 96.625 12.2734H95.125C95.0521 11.7422 94.9167 11.2865 94.7188 10.9062C94.5208 10.5208 94.2396 10.224 93.875 10.0156C93.5104 9.80729 93.0339 9.70312 92.4453 9.70312C91.9401 9.70312 91.4948 9.79948 91.1094 9.99219C90.7292 10.1849 90.4089 10.4583 90.1484 10.8125C89.8932 11.1667 89.7005 11.5911 89.5703 12.0859C89.4401 12.5807 89.375 13.1302 89.375 13.7344V14.8828C89.375 15.4401 89.4323 15.9635 89.5469 16.4531C89.6667 16.9427 89.8464 17.3724 90.0859 17.7422C90.3255 18.112 90.6302 18.4036 91 18.6172C91.3698 18.8255 91.8073 18.9297 92.3125 18.9297C92.9531 18.9297 93.4635 18.8281 93.8438 18.625C94.224 18.4219 94.5104 18.1302 94.7031 17.75C94.901 17.3698 95.0417 16.9141 95.125 16.3828ZM100.836 19.125L103.188 11.5469H104.734L101.344 21.3047C101.266 21.513 101.161 21.737 101.031 21.9766C100.906 22.2214 100.745 22.4531 100.547 22.6719C100.349 22.8906 100.109 23.0677 99.8281 23.2031C99.5521 23.3438 99.2214 23.4141 98.8359 23.4141C98.7214 23.4141 98.5755 23.3984 98.3984 23.3672C98.2214 23.3359 98.0964 23.3099 98.0234 23.2891L98.0156 22.1172C98.0573 22.1224 98.1224 22.1276 98.2109 22.1328C98.3047 22.1432 98.3698 22.1484 98.4062 22.1484C98.7344 22.1484 99.013 22.1042 99.2422 22.0156C99.4714 21.9323 99.6641 21.7891 99.8203 21.5859C99.9818 21.388 100.12 21.1146 100.234 20.7656L100.836 19.125ZM99.1094 11.5469L101.305 18.1094L101.68 19.6328L100.641 20.1641L97.5312 11.5469H99.1094ZM106.031 8H107.484V18.3594L107.359 20H106.031V8ZM113.195 15.7031V15.8672C113.195 16.4818 113.122 17.0521 112.977 17.5781C112.831 18.099 112.617 18.5521 112.336 18.9375C112.055 19.3229 111.711 19.6224 111.305 19.8359C110.898 20.0495 110.432 20.1562 109.906 20.1562C109.37 20.1562 108.898 20.0651 108.492 19.8828C108.091 19.6953 107.753 19.4271 107.477 19.0781C107.201 18.7292 106.979 18.3073 106.812 17.8125C106.651 17.3177 106.539 16.7604 106.477 16.1406V15.4219C106.539 14.7969 106.651 14.237 106.812 13.7422C106.979 13.2474 107.201 12.8255 107.477 12.4766C107.753 12.1224 108.091 11.8542 108.492 11.6719C108.893 11.4844 109.359 11.3906 109.891 11.3906C110.422 11.3906 110.893 11.4948 111.305 11.7031C111.716 11.9062 112.06 12.1979 112.336 12.5781C112.617 12.9583 112.831 13.4141 112.977 13.9453C113.122 14.4714 113.195 15.0573 113.195 15.7031ZM111.742 15.8672V15.7031C111.742 15.2812 111.703 14.8854 111.625 14.5156C111.547 14.1406 111.422 13.8125 111.25 13.5312C111.078 13.2448 110.852 13.0208 110.57 12.8594C110.289 12.6927 109.943 12.6094 109.531 12.6094C109.167 12.6094 108.849 12.6719 108.578 12.7969C108.312 12.9219 108.086 13.0911 107.898 13.3047C107.711 13.513 107.557 13.7526 107.438 14.0234C107.323 14.2891 107.237 14.5651 107.18 14.8516V16.7344C107.263 17.099 107.398 17.4505 107.586 17.7891C107.779 18.1224 108.034 18.3958 108.352 18.6094C108.674 18.8229 109.073 18.9297 109.547 18.9297C109.938 18.9297 110.271 18.8516 110.547 18.6953C110.828 18.5339 111.055 18.3125 111.227 18.0312C111.404 17.75 111.534 17.4245 111.617 17.0547C111.701 16.6849 111.742 16.2891 111.742 15.8672ZM118.531 20.1562C117.943 20.1562 117.409 20.0573 116.93 19.8594C116.456 19.6562 116.047 19.3724 115.703 19.0078C115.365 18.6432 115.104 18.2109 114.922 17.7109C114.74 17.2109 114.648 16.6641 114.648 16.0703V15.7422C114.648 15.0547 114.75 14.4427 114.953 13.9062C115.156 13.3646 115.432 12.9062 115.781 12.5312C116.13 12.1562 116.526 11.8724 116.969 11.6797C117.411 11.487 117.87 11.3906 118.344 11.3906C118.948 11.3906 119.469 11.4948 119.906 11.7031C120.349 11.9115 120.711 12.2031 120.992 12.5781C121.273 12.9479 121.482 13.3854 121.617 13.8906C121.753 14.3906 121.82 14.9375 121.82 15.5312V16.1797H115.508V15H120.375V14.8906C120.354 14.5156 120.276 14.151 120.141 13.7969C120.01 13.4427 119.802 13.151 119.516 12.9219C119.229 12.6927 118.839 12.5781 118.344 12.5781C118.016 12.5781 117.714 12.6484 117.438 12.7891C117.161 12.9245 116.924 13.1276 116.727 13.3984C116.529 13.6693 116.375 14 116.266 14.3906C116.156 14.7812 116.102 15.2318 116.102 15.7422V16.0703C116.102 16.4714 116.156 16.849 116.266 17.2031C116.38 17.5521 116.544 17.8594 116.758 18.125C116.977 18.3906 117.24 18.599 117.547 18.75C117.859 18.901 118.214 18.9766 118.609 18.9766C119.12 18.9766 119.552 18.8724 119.906 18.6641C120.26 18.4557 120.57 18.1771 120.836 17.8281L121.711 18.5234C121.529 18.7995 121.297 19.0625 121.016 19.3125C120.734 19.5625 120.388 19.7656 119.977 19.9219C119.57 20.0781 119.089 20.1562 118.531 20.1562ZM124.953 12.875V20H123.508V11.5469H124.914L124.953 12.875ZM127.594 11.5L127.586 12.8438C127.466 12.8177 127.352 12.8021 127.242 12.7969C127.138 12.7865 127.018 12.7812 126.883 12.7812C126.549 12.7812 126.255 12.8333 126 12.9375C125.745 13.0417 125.529 13.1875 125.352 13.375C125.174 13.5625 125.034 13.7865 124.93 14.0469C124.831 14.3021 124.766 14.5833 124.734 14.8906L124.328 15.125C124.328 14.6146 124.378 14.1354 124.477 13.6875C124.581 13.2396 124.74 12.8438 124.953 12.5C125.167 12.151 125.438 11.8802 125.766 11.6875C126.099 11.4896 126.495 11.3906 126.953 11.3906C127.057 11.3906 127.177 11.4036 127.312 11.4297C127.448 11.4505 127.542 11.474 127.594 11.5Z" fill="white"/>
<line x1="19.5" y1="3" x2="19.5" y2="26" stroke="#228BE6"/>
</svg>
